<svg width="190px" height="116px"
 viewBox="0.00 0.00 190.15 116.00" xmlns="http://www.w3.org/2000/svg" xmlns:xlink="http://www.w3.org/1999/xlink">
<g id="graph0" class="graph" transform="scale(1.0 1.0) rotate(0.0) translate(4.0 112.0)">
<polygon fill="white" stroke="transparent" points="-4,4 -4,-112 186.15,-112 186.15,4 -4,4"/>
<!-- root -->
<g id="node1" class="node">
<title>root</title>
<ellipse fill="none" stroke="black" cx="81.42" cy="-90" rx="27" ry="18"/>
<text text-anchor="middle" x="81.42" y="-85.8" font-family="Times,serif" font-size="14.00">root</text>
</g>
<!-- coins -->
<g id="node2" class="node">
<title>coins</title>
<ellipse fill="none" stroke="black" cx="31.42" cy="-18" rx="31.34" ry="18"/>
<text text-anchor="middle" x="31.42" y="-13.8" font-family="Times,serif" font-size="14.00">coins</text>
</g>
<!-- root&#45;&gt;coins -->
<g id="edge1" class="edge">
<title>root&#45;&gt;coins</title>
<path fill="none" stroke="black" d="M70.32,-73.46C64,-64.62 55.95,-53.34 48.8,-43.34"/>
<polygon fill="black" stroke="black" points="51.49,-41.08 42.83,-34.98 45.8,-45.15 51.49,-41.08"/>
</g>
<!-- pokemons -->
<g id="node3" class="node">
<title>pokemons</title>
<ellipse fill="none" stroke="black" cx="131.42" cy="-18" rx="50.97" ry="18"/>
<text text-anchor="middle" x="131.42" y="-13.8" font-family="Times,serif" font-size="14.00">pokemons</text>
</g>
<!-- root&#45;&gt;pokemons -->
<g id="edge2" class="edge">
<title>root&#45;&gt;pokemons</title>
<path fill="none" stroke="black" d="M92.52,-73.46C98.66,-64.87 106.44,-53.97 113.43,-44.19"/>
<polygon fill="black" stroke="black" points="116.34,-46.13 119.3,-35.96 110.64,-42.06 116.34,-46.13"/>
</g>
</g>
</svg>
